<svg width="32" height="32" viewBox="0 0 32 32" fill="none" xmlns="http://www.w3.org/2000/svg">
<path d="M18.6667 26.667H13.3334V29.3337H10.6667V26.667H6.66675C5.93037 26.667 5.33341 26.0701 5.33341 25.3337V21.3337H2.66675V18.667H5.33341V13.3337H2.66675V10.667H5.33341V6.66699C5.33341 5.93062 5.93037 5.33366 6.66675 5.33366H10.6667V2.66699H13.3334V5.33366H18.6667V2.66699H21.3334V5.33366H25.3334C26.0698 5.33366 26.6667 5.93062 26.6667 6.66699V10.667H29.3334V13.3337H26.6667V18.667H29.3334V21.3337H26.6667V25.3337C26.6667 26.0701 26.0698 26.667 25.3334 26.667H21.3334V29.3337H18.6667V26.667ZM9.33341 9.33366V14.667H14.6667V9.33366H9.33341Z" fill="white"/>
</svg>
