<svg width="32" height="32" viewBox="0 0 32 32" fill="none" xmlns="http://www.w3.org/2000/svg">
<path d="M9.47344 11.7199C9.93572 13.418 11.4887 14.6667 13.3333 14.6667H18.6667C21.9604 14.6667 24.6963 17.0553 25.2365 20.1948C26.8404 20.7156 28 22.2224 28 24C28 26.2092 26.2092 28 24 28C21.7908 28 20 26.2092 20 24C20 22.3112 21.0465 20.8668 22.5265 20.2801C22.0643 18.582 20.5113 17.3333 18.6667 17.3333H13.3333C11.8325 17.3333 10.4475 16.8375 9.33333 16.0005V20.2276C10.8869 20.7767 12 22.2584 12 24C12 26.2092 10.2091 28 8 28C5.79087 28 4 26.2092 4 24C4 22.2584 5.11308 20.7767 6.66667 20.2276V11.7724C5.11308 11.2233 4 9.74163 4 8C4 5.79087 5.79087 4 8 4C10.2091 4 12 5.79087 12 8C12 9.68881 10.9534 11.1332 9.47344 11.7199Z" fill="white"/>
</svg>
