<svg xmlns="http://www.w3.org/2000/svg" viewBox="0 0 1600 900" width="1600" height="900">
  <defs>
    <pattern id="dotgrid" x="0" y="0" width="32" height="32" patternUnits="userSpaceOnUse">
      <circle cx="0" cy="0" r="0.8" fill="#1C1F25"/>
    </pattern>
    <radialGradient id="sphereGlow" cx="50%" cy="50%" r="50%">
      <stop offset="0%"  stop-color="#FF5B3A" stop-opacity="0.22"/>
      <stop offset="60%" stop-color="#FF5B3A" stop-opacity="0.05"/>
      <stop offset="100%" stop-color="#FF5B3A" stop-opacity="0"/>
    </radialGradient>
    <radialGradient id="sphereCore" cx="42%" cy="38%" r="60%">
      <stop offset="0%"  stop-color="#1A1D24"/>
      <stop offset="70%" stop-color="#0E1014"/>
      <stop offset="100%" stop-color="#0A0B0D"/>
    </radialGradient>
  </defs>

  <rect width="1600" height="900" fill="#0A0B0D"/>
  <rect width="1600" height="900" fill="url(#dotgrid)"/>

  <g stroke="#EDE8DD" stroke-opacity="0.18" stroke-width="0.8">
    <line x1="235"  y1="465" x2="800" y2="700"/>
    <line x1="625"  y1="465" x2="800" y2="700"/>
    <line x1="1015" y1="465" x2="800" y2="700"/>
    <line x1="1405" y1="465" x2="800" y2="700"/>
  </g>

  <g transform="translate(60, 80)">
    <rect x="0" y="0" width="350" height="380" rx="3" fill="#0E1014" stroke="#EDE8DD" stroke-width="0.8" stroke-opacity="0.45"/>
    <g transform="translate(24, 24)">
      <circle cx="14" cy="14" r="13" fill="none" stroke="#EDE8DD" stroke-width="2"/>
      <rect x="6" y="12.5" width="16" height="3" fill="#EDE8DD"/>
    </g>
    <g font-family="ui-monospace, 'IBM Plex Mono', 'JetBrains Mono', monospace">
      <text x="68" y="32" font-size="14" letter-spacing="2" fill="#EDE8DD">COINBASE</text>
      <text x="68" y="50" font-size="10" letter-spacing="2" fill="#EDE8DD" fill-opacity="0.55">ORDER BOOK</text>
    </g>
    <g transform="translate(40, 100)" stroke="#EDE8DD" stroke-width="1">
      <line x1="0" y1="200" x2="270" y2="200" stroke-opacity="0.2"/>
      <line x1="20"  y1="60"  x2="20"  y2="155"/>
      <rect x="14"   y="80"   width="12" height="28" fill="#EDE8DD" fill-opacity="0.7"/>
      <line x1="65"  y1="40"  x2="65"  y2="135"/>
      <rect x="59"   y="55"   width="12" height="40" fill="#EDE8DD" fill-opacity="0.7"/>
      <line x1="110" y1="50"  x2="110" y2="120"/>
      <rect x="104"  y="70"   width="12" height="30" fill="none" stroke="#EDE8DD"/>
      <line x1="155" y1="30"  x2="155" y2="115"/>
      <rect x="149"  y="45"   width="12" height="40" fill="#EDE8DD" fill-opacity="0.7"/>
      <line x1="200" y1="38"  x2="200" y2="105"/>
      <rect x="194"  y="50"   width="12" height="30" fill="none" stroke="#EDE8DD"/>
      <line x1="245" y1="48"  x2="245" y2="100"/>
      <rect x="239"  y="60"   width="12" height="32" fill="#EDE8DD" fill-opacity="0.7"/>
    </g>
    <g font-family="ui-monospace, 'IBM Plex Mono', 'JetBrains Mono', monospace">
      <text x="24" y="345" font-size="11" letter-spacing="2" fill="#EDE8DD" fill-opacity="0.55">SPOT</text>
      <text x="24" y="365" font-size="18" font-family="'Fraunces', serif" fill="#EDE8DD">$1.0001</text>
    </g>
  </g>

  <g transform="translate(450, 80)">
    <rect x="0" y="0" width="350" height="380" rx="3" fill="#0E1014" stroke="#EDE8DD" stroke-width="0.8" stroke-opacity="0.45"/>
    <g transform="translate(24, 24)" fill="none" stroke="#EDE8DD" stroke-width="2">
      <path d="M 4 22 C 4 8, 22 4, 22 18 C 22 26, 14 26, 12 18"/>
      <circle cx="12" cy="11" r="2" fill="#EDE8DD"/>
    </g>
    <g font-family="ui-monospace, 'IBM Plex Mono', 'JetBrains Mono', monospace">
      <text x="68" y="32" font-size="14" letter-spacing="2" fill="#EDE8DD">UNISWAP</text>
      <text x="68" y="50" font-size="10" letter-spacing="2" fill="#EDE8DD" fill-opacity="0.55">POOL · X·Y=K</text>
    </g>
    <g transform="translate(40, 100)" fill="none">
      <line x1="0" y1="200" x2="270" y2="200" stroke="#EDE8DD" stroke-opacity="0.2" stroke-width="1"/>
      <line x1="0" y1="0" x2="0" y2="200" stroke="#EDE8DD" stroke-opacity="0.2" stroke-width="1"/>
      <path d="M 10 30 C 30 90, 80 160, 270 195" stroke="#EDE8DD" stroke-width="1.5"/>
      <circle cx="135" cy="145" r="4.5" fill="#FF5B3A"/>
      <text x="148" y="148" font-family="ui-monospace, monospace" font-size="9" fill="#FF5B3A" letter-spacing="1">CURRENT</text>
    </g>
    <g font-family="ui-monospace, 'IBM Plex Mono', 'JetBrains Mono', monospace">
      <text x="24" y="345" font-size="11" letter-spacing="2" fill="#EDE8DD" fill-opacity="0.55">MID</text>
      <text x="24" y="365" font-size="18" font-family="'Fraunces', serif" fill="#EDE8DD">$0.9998</text>
    </g>
  </g>

  <g transform="translate(840, 80)">
    <rect x="0" y="0" width="350" height="380" rx="3" fill="#0E1014" stroke="#EDE8DD" stroke-width="0.8" stroke-opacity="0.45"/>
    <g transform="translate(24, 24)" fill="none">
      <path d="M 3 24 Q 8 4, 25 5" stroke="#EDE8DD" stroke-width="2"/>
      <circle cx="3" cy="24" r="2" fill="#EDE8DD"/>
      <circle cx="25" cy="5" r="2" fill="#EDE8DD"/>
    </g>
    <g font-family="ui-monospace, 'IBM Plex Mono', 'JetBrains Mono', monospace">
      <text x="68" y="32" font-size="14" letter-spacing="2" fill="#EDE8DD">CURVE</text>
      <text x="68" y="50" font-size="10" letter-spacing="2" fill="#EDE8DD" fill-opacity="0.55">STABLESWAP DEPTH</text>
    </g>
    <g transform="translate(40, 100)">
      <line x1="0" y1="200" x2="270" y2="200" stroke="#EDE8DD" stroke-opacity="0.2" stroke-width="1"/>
      <line x1="135" y1="0" x2="135" y2="200" stroke="#FF5B3A" stroke-opacity="0.4" stroke-width="1" stroke-dasharray="3 3"/>
      <rect x="0"   y="160" width="22" height="40" fill="#EDE8DD" fill-opacity="0.45"/>
      <rect x="22"  y="140" width="22" height="60" fill="#EDE8DD" fill-opacity="0.55"/>
      <rect x="44"  y="120" width="22" height="80" fill="#EDE8DD" fill-opacity="0.65"/>
      <rect x="66"  y="80"  width="22" height="120" fill="#EDE8DD" fill-opacity="0.75"/>
      <rect x="88"  y="50"  width="22" height="150" fill="#EDE8DD" fill-opacity="0.85"/>
      <rect x="110" y="30"  width="22" height="170" fill="#EDE8DD"/>
      <rect x="138" y="35"  width="22" height="165" fill="#EDE8DD"/>
      <rect x="160" y="55"  width="22" height="145" fill="#EDE8DD" fill-opacity="0.85"/>
      <rect x="182" y="85"  width="22" height="115" fill="#EDE8DD" fill-opacity="0.75"/>
      <rect x="204" y="125" width="22" height="75"  fill="#EDE8DD" fill-opacity="0.65"/>
      <rect x="226" y="145" width="22" height="55"  fill="#EDE8DD" fill-opacity="0.55"/>
      <rect x="248" y="165" width="22" height="35"  fill="#EDE8DD" fill-opacity="0.45"/>
    </g>
    <g font-family="ui-monospace, 'IBM Plex Mono', 'JetBrains Mono', monospace">
      <text x="24" y="345" font-size="11" letter-spacing="2" fill="#EDE8DD" fill-opacity="0.55">DEPTH ±50bps</text>
      <text x="24" y="365" font-size="18" font-family="'Fraunces', serif" fill="#EDE8DD">$2.4M</text>
    </g>
  </g>

  <g transform="translate(1230, 80)">
    <rect x="0" y="0" width="350" height="380" rx="3" fill="#0E1014" stroke="#5A5E68" stroke-width="0.8" stroke-dasharray="4 3"/>
    <g transform="translate(24, 24)" fill="none" stroke="#5A5E68" stroke-width="2">
      <polygon points="14,3 25,9.5 25,21.5 14,28 3,21.5 3,9.5"/>
      <polygon points="14,9 19,12 19,18 14,21 9,18 9,12" fill="#5A5E68"/>
    </g>
    <g font-family="ui-monospace, 'IBM Plex Mono', 'JetBrains Mono', monospace">
      <text x="68" y="32" font-size="14" letter-spacing="2" fill="#5A5E68">CHAINLINK</text>
      <text x="68" y="50" font-size="10" letter-spacing="2" fill="#5A5E68">ORACLE FEED</text>
    </g>
    <g transform="translate(40, 100)">
      <line x1="0" y1="200" x2="270" y2="200" stroke="#5A5E68" stroke-opacity="0.3" stroke-width="1"/>
      <text x="135" y="115" font-family="'Fraunces', serif" font-size="48" fill="#5A5E68" text-anchor="middle">$1.0000</text>
      <line x1="55" y1="140" x2="215" y2="140" stroke="#5A5E68" stroke-width="1.2"/>
      <line x1="55" y1="135" x2="55" y2="145" stroke="#5A5E68" stroke-width="1.2"/>
      <line x1="215" y1="135" x2="215" y2="145" stroke="#5A5E68" stroke-width="1.2"/>
      <text x="135" y="158" font-family="ui-monospace, monospace" font-size="9" fill="#5A5E68" text-anchor="middle" letter-spacing="2">CONFIDENCE ±0.0001</text>
    </g>
    <g font-family="ui-monospace, 'IBM Plex Mono', 'JetBrains Mono', monospace">
      <text x="24" y="345" font-size="10" letter-spacing="2" fill="#FF5B3A" fill-opacity="0.8">THE WORKAROUND</text>
      <text x="24" y="365" font-size="11" letter-spacing="2" fill="#5A5E68">one number, opaque provenance</text>
    </g>
  </g>

  <g transform="translate(800, 700)">
    <circle r="130" fill="url(#sphereGlow)"/>
    <circle r="90" fill="url(#sphereCore)" stroke="#EDE8DD" stroke-width="1.5"/>
    <circle r="74" fill="none" stroke="#EDE8DD" stroke-width="0.6" stroke-opacity="0.35"/>
    <circle r="56" fill="none" stroke="#EDE8DD" stroke-width="0.6" stroke-opacity="0.25"/>
    <circle r="38" fill="none" stroke="#EDE8DD" stroke-width="0.6" stroke-opacity="0.18"/>
    <ellipse rx="90" ry="30" fill="none" stroke="#EDE8DD" stroke-width="0.7" stroke-opacity="0.30"/>
    <ellipse rx="30" ry="90" fill="none" stroke="#EDE8DD" stroke-width="0.7" stroke-opacity="0.30"/>
    <circle r="5" fill="#FF5B3A"/>
    <circle r="12" fill="none" stroke="#FF5B3A" stroke-width="1" stroke-opacity="0.6"/>
    <circle r="20" fill="none" stroke="#FF5B3A" stroke-width="0.6" stroke-opacity="0.3"/>
  </g>

  <g font-family="ui-monospace, 'IBM Plex Mono', 'JetBrains Mono', monospace" text-anchor="middle">
    <text x="800" y="610" font-size="11" letter-spacing="3" fill="#EDE8DD" fill-opacity="0.55">AGENT</text>
    <text x="800" y="838" font-size="11" letter-spacing="2" fill="#EDE8DD" fill-opacity="0.7">RECONCILED · $1.0001 ACROSS 3 OF 3 VENUES</text>
  </g>

  <g transform="translate(1430, 870)" font-family="ui-monospace, 'IBM Plex Mono', 'JetBrains Mono', monospace" fill="#EDE8DD" fill-opacity="0.45">
    <line x1="0" y1="-12" x2="90" y2="-12" stroke="#EDE8DD" stroke-opacity="0.25" stroke-width="1"/>
    <text x="0" y="6" font-size="11" letter-spacing="2">THESEUS.NETWORK</text>
  </g>
</svg>
