<svg xmlns="http://www.w3.org/2000/svg" viewBox="0 0 1600 900" width="1600" height="900">
  <defs>
    <pattern id="dotgrid" x="0" y="0" width="32" height="32" patternUnits="userSpaceOnUse">
      <circle cx="0" cy="0" r="0.8" fill="#1C1F25"/>
    </pattern>
    <linearGradient id="collapseGrad" x1="0%" y1="0%" x2="100%" y2="0%">
      <stop offset="0%"  stop-color="#EDE8DD" stop-opacity="0.75"/>
      <stop offset="100%" stop-color="#FF5B3A" stop-opacity="0.95"/>
    </linearGradient>
    <linearGradient id="supplyGrad" x1="0%" y1="100%" x2="0%" y2="0%">
      <stop offset="0%"  stop-color="#EDE8DD" stop-opacity="0.1"/>
      <stop offset="100%" stop-color="#FF5B3A" stop-opacity="0.85"/>
    </linearGradient>
  </defs>

  <rect width="1600" height="900" fill="#0A0B0D"/>
  <rect width="1600" height="900" fill="url(#dotgrid)"/>

  <g font-family="ui-monospace, 'IBM Plex Mono', 'JetBrains Mono', monospace" fill="#EDE8DD">
    <text x="80" y="90" font-size="12" letter-spacing="3" fill-opacity="0.55">MAY 2022 · TERRA COLLAPSE · 8 DAYS</text>
    <line x1="80" y1="106" x2="500" y2="106" stroke="#EDE8DD" stroke-opacity="0.15"/>
  </g>

  <g transform="translate(80 160)">
    <g font-family="ui-monospace, monospace" fill="#EDE8DD">
      <text x="0" y="0" font-size="11" letter-spacing="2" fill-opacity="0.55">UST PRICE  ·  MAY 7 → MAY 13</text>
    </g>
    <rect x="0" y="20" width="700" height="240" fill="#0E1014" stroke="#EDE8DD" stroke-opacity="0.25" stroke-width="0.8"/>
    <line x1="0" y1="50" x2="700" y2="50" stroke="#EDE8DD" stroke-opacity="0.1" stroke-dasharray="4 4"/>
    <text x="710" y="55" font-family="ui-monospace, monospace" font-size="10" fill="#EDE8DD" fill-opacity="0.45">$1.00 PEG</text>
    <path d="M 30 52 L 130 56 L 230 76 L 330 124 L 430 174 L 530 200 L 630 218 L 680 226" fill="none" stroke="url(#collapseGrad)" stroke-width="2.8"/>
    <circle cx="330" cy="124" r="5" fill="#FF5B3A"/>
    <text x="338" y="118" font-family="ui-monospace, monospace" font-size="11" fill="#FF5B3A">$0.62</text>
    <circle cx="680" cy="226" r="6" fill="#FF5B3A"/>
    <text x="660" y="250" font-family="ui-monospace, monospace" font-size="11" fill="#FF5B3A">$0.18</text>
  </g>

  <g transform="translate(80 470)">
    <g font-family="ui-monospace, monospace" fill="#EDE8DD">
      <text x="0" y="0" font-size="11" letter-spacing="2" fill-opacity="0.55">LUNA SUPPLY  ·  343M → 6.5T  ·  19,000×</text>
    </g>
    <rect x="0" y="20" width="700" height="240" fill="#0E1014" stroke="#EDE8DD" stroke-opacity="0.25" stroke-width="0.8"/>
    <path d="M 30 255 L 130 254 L 230 250 L 330 235 L 430 200 L 530 130 L 630 55 L 680 35 L 680 260 L 30 260 Z" fill="url(#supplyGrad)" fill-opacity="0.7"/>
    <path d="M 30 255 L 130 254 L 230 250 L 330 235 L 430 200 L 530 130 L 630 55 L 680 35" fill="none" stroke="#FF5B3A" stroke-width="2.4"/>
    <circle cx="680" cy="35" r="6" fill="#FF5B3A"/>
    <text x="600" y="28" font-family="ui-monospace, monospace" font-size="11" fill="#FF5B3A">6.5T LUNA</text>
  </g>

  <g transform="translate(880 160)">
    <rect x="0" y="0" width="640" height="600" rx="4" fill="#0E1014" stroke="#EDE8DD" stroke-opacity="0.35" stroke-width="0.8"/>

    <g font-family="ui-monospace, monospace" fill="#EDE8DD">
      <text x="32" y="44" font-size="11" letter-spacing="3" fill-opacity="0.55">AGENT · FAILSAFE · TERRA-SHAPED STABLECOIN</text>
      <line x1="32" y1="60" x2="608" y2="60" stroke="#EDE8DD" stroke-opacity="0.15"/>
    </g>

    <g transform="translate(60 110)" font-family="ui-monospace, monospace" fill="#EDE8DD">
      <text x="0" y="0" font-size="10" letter-spacing="2" fill-opacity="0.45">DAY 1 · WOBBLE</text>
      <text x="0" y="22" font-size="15" fill-opacity="0.9">REFUSE mint, ALLOW exit</text>
      <line x1="0" y1="40" x2="520" y2="40" stroke="#EDE8DD" stroke-opacity="0.1"/>
    </g>

    <g transform="translate(60 180)" font-family="ui-monospace, monospace" fill="#EDE8DD">
      <text x="0" y="0" font-size="10" letter-spacing="2" fill-opacity="0.45">DAY 2 · CRACKING</text>
      <text x="0" y="22" font-size="15" fill-opacity="0.9">REFUSE both directions</text>
      <line x1="0" y1="40" x2="520" y2="40" stroke="#EDE8DD" stroke-opacity="0.1"/>
    </g>

    <g transform="translate(60 250)" font-family="ui-monospace, monospace" fill="#EDE8DD">
      <text x="0" y="0" font-size="10" letter-spacing="2" fill-opacity="0.45">DAY 3 · BANK RUN</text>
      <text x="0" y="22" font-size="15" fill-opacity="0.9">REFUSE both directions</text>
      <line x1="0" y1="40" x2="520" y2="40" stroke="#EDE8DD" stroke-opacity="0.1"/>
    </g>

    <g transform="translate(60 320)" font-family="ui-monospace, monospace" fill="#EDE8DD">
      <text x="0" y="0" font-size="10" letter-spacing="2" fill-opacity="0.45">DAY 4 · SPIRAL</text>
      <text x="0" y="22" font-size="15" fill-opacity="0.9">REFUSE both directions</text>
      <line x1="0" y1="40" x2="520" y2="40" stroke="#EDE8DD" stroke-opacity="0.1"/>
    </g>

    <g transform="translate(60 420)">
      <rect x="-12" y="-32" width="528" height="138" fill="none" stroke="#FF5B3A" stroke-opacity="0.4" stroke-width="1.2"/>
      <circle cx="510" cy="-12" r="3" fill="#FF5B3A"/>
      <text x="0" y="-12" font-family="ui-monospace, monospace" font-size="11" letter-spacing="3" fill="#FF5B3A">VERDICT · SIGNED UNDER POA</text>
      <text x="0" y="36" font-family="'Fraunces', serif" font-size="48" fill="#EDE8DD" font-style="italic" font-weight="400">REFUSE</text>
      <text x="0" y="76" font-family="ui-monospace, monospace" font-size="11" fill="#EDE8DD" fill-opacity="0.6">oracle stops tracking spot; protocol prints LUNA</text>
      <text x="0" y="93" font-family="ui-monospace, monospace" font-size="11" fill="#EDE8DD" fill-opacity="0.6">at a price the prints themselves invalidated</text>
    </g>
  </g>

  <g transform="translate(1480 850)" font-family="ui-monospace, 'IBM Plex Mono', monospace" fill="#EDE8DD" fill-opacity="0.45">
    <line x1="-110" y1="-12" x2="0" y2="-12" stroke="#EDE8DD" stroke-opacity="0.25" stroke-width="1"/>
    <text x="-110" y="6" font-size="11" letter-spacing="2">THESEUS.NETWORK</text>
  </g>
</svg>
